{
	"asset":{
		"generator":"Khronos glTF Blender I/O v4.2.69",
		"version":"2.0"
	},
	"extensionsUsed":[
		"KHR_materials_clearcoat",
		"KHR_materials_specular",
		"KHR_materials_anisotropy",
		"KHR_materials_ior",
		"KHR_texture_transform"
	],
	"extensionsRequired":[
		"KHR_texture_transform"
	],
	"scene":0,
	"scenes":[
		{
			"name":"Scene",
			"nodes":[
				4
			]
		}
	],
	"nodes":[
		{
			"mesh":0,
			"name":"zastegnuto0.001",
			"rotation":[
				0.70710688829422,
				0,
				0,
				0.7071066498756409
			],
			"scale":[
				0.000682483019772917,
				0.0006824830779805779,
				0.0006824830779805779
			],
			"translation":[
				0.02309170365333557,
				-0.8252092599868774,
				0.01755780354142189
			]
		},
		{
			"mesh":1,
			"name":"zastegnuto0.005",
			"rotation":[
				0.7071047425270081,
				-0.0016883364878594875,
				0.0016883362550288439,
				0.7071048617362976
			],
			"scale":[
				0.0006824831361882389,
				0.0006824831361882389,
				0.0006824830779805779
			],
			"translation":[
				0.01311254408210516,
				-0.8993018865585327,
				0.010923043824732304
			]
		},
		{
			"mesh":2,
			"name":"zastegnuto01",
			"rotation":[
				0.70710688829422,
				0,
				0,
				0.7071066498756409
			],
			"scale":[
				0.0006820000126026571,
				0.000682000070810318,
				0.000682000070810318
			],
			"translation":[
				0.007389000151306391,
				-0.9007319211959839,
				0.01774599961936474
			]
		},
		{
			"mesh":3,
			"name":"zastegnuto01.001",
			"rotation":[
				0.70710688829422,
				0,
				0,
				0.7071066498756409
			],
			"scale":[
				0.0006820000126026571,
				0.000682000070810318,
				0.000682000070810318
			],
			"translation":[
				0.007389000151306391,
				-0.9007319211959839,
				0.01774599961936474
			]
		},
		{
			"children":[
				0,
				1,
				2,
				3
			],
			"name":"Empty.001",
			"translation":[
				-0.009488388895988464,
				1.152481198310852,
				-0.004259214270859957
			]
		}
	],
	"materials":[
		{
			"alphaMode":"BLEND",
			"doubleSided":true,
			"extensions":{
				"KHR_materials_specular":{
					"specularColorFactor":[
						2.0,
						2.0,
						2.0
					]
				},
				"KHR_materials_anisotropy":{
					"anisotropyStrength":0.37272724509239197
				}
			},
			"name":"Material.003",
			"pbrMetallicRoughness":{
				"baseColorTexture":{
					"index":0
				},
				"metallicFactor":0.5454545021057129,
				"roughnessFactor":0.1454545259475708
			}
		},
		{
			"alphaMode":"BLEND",
			"doubleSided":true,
			"extensions":{
				"KHR_materials_clearcoat":{
					"clearcoatRoughnessFactor":0
				},
				"KHR_materials_specular":{
					"specularColorFactor":[
						2.0,
						2.0,
						2.0
					]
				},
				"KHR_materials_ior":{
					"ior":1.399999976158142
				}
			},
			"name":"Material.006",
			"normalTexture":{
				"extensions":{
					"KHR_texture_transform":{
						"offset":[
							0,
							-3.0999999046325684
						],
						"scale":[
							3.1000001430511475,
							4.099999904632568
						]
					}
				},
				"index":1,
				"scale":9
			},
			"pbrMetallicRoughness":{
				"baseColorTexture":{
					"index":2
				},
				"metallicFactor":0,
				"roughnessFactor":0
			}
		},
		{
			"doubleSided":true,
			"extensions":{
				"KHR_materials_specular":{
					"specularFactor":0.5818182826042175
				}
			},
			"name":"Satin Fabric.001",
			"normalTexture":{
				"extensions":{
					"KHR_texture_transform":{
						"offset":[
							0,
							-9
						],
						"scale":[
							10,
							10
						]
					}
				},
				"index":3,
				"texCoord":1
			},
			"pbrMetallicRoughness":{
				"baseColorFactor":[
					0.010853664949536324,
					0.010711655020713806,
					0.02198232337832451,
					1
				],
				"metallicFactor":0.5,
				"metallicRoughnessTexture":{
					"extensions":{
						"KHR_texture_transform":{
							"offset":[
								0,
								-9
							],
							"scale":[
								10,
								10
							]
						}
					},
					"index":4,
					"texCoord":1
				}
			}
		},
		{
			"doubleSided":true,
			"extensions":{
				"KHR_materials_specular":{
					"specularFactor":0.4000000059604645
				},
				"KHR_materials_ior":{
					"ior":1.4500000476837158
				}
			},
			"name":"Fabric 19.001",
			"pbrMetallicRoughness":{
				"baseColorTexture":{
					"extensions":{
						"KHR_texture_transform":{
							"offset":[
								0,
								-149
							],
							"scale":[
								150,
								150
							]
						}
					},
					"index":5,
					"texCoord":1
				},
				"metallicFactor":0.7909090518951416,
				"metallicRoughnessTexture":{
					"extensions":{
						"KHR_texture_transform":{
							"offset":[
								0,
								-149
							],
							"scale":[
								150,
								150
							]
						}
					},
					"index":6,
					"texCoord":1
				}
			}
		},
		{
			"doubleSided":true,
			"name":"Golden Fabric",
			"pbrMetallicRoughness":{
				"baseColorFactor":[
					1,
					0.6762065291404724,
					0,
					1
				],
				"metallicFactor":0.4000000059604645,
				"roughnessFactor":0.2709091007709503
			}
		},
		{
			"doubleSided":true,
			"extensions":{
				"KHR_materials_specular":{
					"specularColorFactor":[
						2.0,
						2.0,
						2.0
					]
				}
			},
			"name":"Plastic Black 5",
			"normalTexture":{
				"extensions":{
					"KHR_texture_transform":{
						"offset":[
							0,
							-99
						],
						"scale":[
							100,
							100
						]
					}
				},
				"index":7,
				"texCoord":1
			},
			"pbrMetallicRoughness":{
				"baseColorFactor":[
					0.0332045778632164,
					0.03539928421378136,
					0.04851160943508148,
					1
				],
				"metallicFactor":0.7227272987365723,
				"roughnessFactor":0.1818181574344635
			}
		},
		{
			"doubleSided":true,
			"name":"Material.007",
			"pbrMetallicRoughness":{
				"baseColorFactor":[
					0,
					0,
					0,
					1
				],
				"metallicFactor":0,
				"roughnessFactor":0.5
			}
		}
	],
	"meshes":[
		{
			"name":"zastegnuto0.001",
			"primitives":[
				{
					"attributes":{
						"POSITION":0,
						"NORMAL":1,
						"TEXCOORD_0":2
					},
					"indices":3,
					"material":0
				}
			]
		},
		{
			"name":"zastegnuto0.005",
			"primitives":[
				{
					"attributes":{
						"POSITION":4,
						"NORMAL":5,
						"TEXCOORD_0":6
					},
					"indices":7,
					"material":1
				}
			]
		},
		{
			"name":"zastegnuto01",
			"primitives":[
				{
					"attributes":{
						"POSITION":8,
						"NORMAL":9,
						"TEXCOORD_0":10,
						"TEXCOORD_1":11
					},
					"indices":12,
					"material":2
				},
				{
					"attributes":{
						"POSITION":13,
						"NORMAL":14,
						"TEXCOORD_0":15,
						"TEXCOORD_1":16
					},
					"indices":17,
					"material":3
				},
				{
					"attributes":{
						"POSITION":18,
						"NORMAL":19,
						"TEXCOORD_0":20,
						"TEXCOORD_1":21
					},
					"indices":22,
					"material":4
				},
				{
					"attributes":{
						"POSITION":23,
						"NORMAL":24,
						"TEXCOORD_0":25,
						"TEXCOORD_1":26
					},
					"indices":27,
					"material":5
				},
				{
					"attributes":{
						"POSITION":28,
						"NORMAL":29,
						"TEXCOORD_0":30,
						"TEXCOORD_1":31
					},
					"indices":32,
					"material":6
				}
			]
		},
		{
			"name":"zastegnuto01.001",
			"primitives":[
				{
					"attributes":{
						"POSITION":33,
						"NORMAL":34,
						"TEXCOORD_0":35,
						"TEXCOORD_1":36
					},
					"indices":37,
					"material":2
				},
				{
					"attributes":{
						"POSITION":38,
						"NORMAL":39,
						"TEXCOORD_0":40,
						"TEXCOORD_1":41
					},
					"indices":42,
					"material":5
				}
			]
		}
	],
	"textures":[
		{
			"sampler":0,
			"source":0
		},
		{
			"sampler":0,
			"source":1
		},
		{
			"sampler":0,
			"source":2
		},
		{
			"sampler":0,
			"source":3
		},
		{
			"sampler":0,
			"source":4
		},
		{
			"sampler":0,
			"source":5
		},
		{
			"sampler":0,
			"source":6
		},
		{
			"sampler":0,
			"source":7
		}
	],
	"images":[
		{
			"mimeType":"image/png",
			"name":"photo_2024-10-28_20-41-17-no-bg-preview (carve",
			"uri":"photo_2024-10-28_20-41-17-no-bg-preview%20carve.png"
		},
		{
			"mimeType":"image/jpeg",
			"name":"Knitting_Wool_Normal",
			"uri":"Knitting_Wool_Normal.jpg"
		},
		{
			"mimeType":"image/png",
			"name":"Logo 1 (2)\u043a",
			"uri":"Logo%201%202%D0%BA.png"
		},
		{
			"mimeType":"image/jpeg",
			"name":"satin_fabric_08_normal",
			"uri":"satin_fabric_08_normal.jpg"
		},
		{
			"mimeType":"image/png",
			"name":"satin_fabric_08_roughness",
			"uri":"satin_fabric_08_roughness.png"
		},
		{
			"mimeType":"image/jpeg",
			"name":"Fabric-19_diffuse_1",
			"uri":"Fabric-19_diffuse_1.jpg"
		},
		{
			"mimeType":"image/png",
			"name":"Fabric-19_smooth",
			"uri":"Fabric-19_smooth.png"
		},
		{
			"mimeType":"image/jpeg",
			"name":"plastic-texture-normal-5",
			"uri":"plastic-texture-normal-5.jpg"
		}
	],
	"accessors":[
		{
			"bufferView":0,
			"componentType":5126,
			"count":884,
			"max":[
				297.4083557128906,
				2.419445276260376,
				-1132.5972900390625
			],
			"min":[
				260.3101501464844,
				-93.86060333251953,
				-1217.550537109375
			],
			"type":"VEC3"
		},
		{
			"bufferView":1,
			"componentType":5126,
			"count":884,
			"type":"VEC3"
		},
		{
			"bufferView":2,
			"componentType":5126,
			"count":884,
			"type":"VEC2"
		},
		{
			"bufferView":3,
			"componentType":5123,
			"count":5292,
			"type":"SCALAR"
		},
		{
			"bufferView":4,
			"componentType":5126,
			"count":517,
			"max":[
				101.62220001220703,
				135.28607177734375,
				-1417.7540283203125
			],
			"min":[
				42.07520294189453,
				98.47427368164062,
				-1477.4642333984375
			],
			"type":"VEC3"
		},
		{
			"bufferView":5,
			"componentType":5126,
			"count":517,
			"type":"VEC3"
		},
		{
			"bufferView":6,
			"componentType":5126,
			"count":517,
			"type":"VEC2"
		},
		{
			"bufferView":7,
			"componentType":5123,
			"count":3078,
			"type":"SCALAR"
		},
		{
			"bufferView":8,
			"componentType":5126,
			"count":294628,
			"max":[
				334.4609680175781,
				203.18894958496094,
				-894.29931640625
			],
			"min":[
				-335.72235107421875,
				-243.36602783203125,
				-1808.5157470703125
			],
			"type":"VEC3"
		},
		{
			"bufferView":9,
			"componentType":5126,
			"count":294628,
			"type":"VEC3"
		},
		{
			"bufferView":10,
			"componentType":5126,
			"count":294628,
			"type":"VEC2"
		},
		{
			"bufferView":11,
			"componentType":5126,
			"count":294628,
			"type":"VEC2"
		},
		{
			"bufferView":12,
			"componentType":5125,
			"count":1663722,
			"type":"SCALAR"
		},
		{
			"bufferView":13,
			"componentType":5126,
			"count":101291,
			"max":[
				251.86788940429688,
				182.82945251464844,
				-999.4118041992188
			],
			"min":[
				-248.9472198486328,
				-228.44081115722656,
				-1808.4385986328125
			],
			"type":"VEC3"
		},
		{
			"bufferView":14,
			"componentType":5126,
			"count":101291,
			"type":"VEC3"
		},
		{
			"bufferView":15,
			"componentType":5126,
			"count":101291,
			"type":"VEC2"
		},
		{
			"bufferView":16,
			"componentType":5126,
			"count":101291,
			"type":"VEC2"
		},
		{
			"bufferView":17,
			"componentType":5125,
			"count":571803,
			"type":"SCALAR"
		},
		{
			"bufferView":18,
			"componentType":5126,
			"count":1858393,
			"max":[
				322.4214782714844,
				198.16123962402344,
				-894.8273315429688
			],
			"min":[
				-322.06158447265625,
				-228.91163635253906,
				-1808.647216796875
			],
			"type":"VEC3"
		},
		{
			"bufferView":19,
			"componentType":5126,
			"count":1858393,
			"type":"VEC3"
		},
		{
			"bufferView":20,
			"componentType":5126,
			"count":1858393,
			"type":"VEC2"
		},
		{
			"bufferView":21,
			"componentType":5126,
			"count":1858393,
			"type":"VEC2"
		},
		{
			"bufferView":22,
			"componentType":5125,
			"count":9563760,
			"type":"SCALAR"
		},
		{
			"bufferView":23,
			"componentType":5126,
			"count":4459,
			"max":[
				298.02362060546875,
				170.5355224609375,
				-1041.16845703125
			],
			"min":[
				-65.45365905761719,
				-62.729957580566406,
				-1369.4893798828125
			],
			"type":"VEC3"
		},
		{
			"bufferView":24,
			"componentType":5126,
			"count":4459,
			"type":"VEC3"
		},
		{
			"bufferView":25,
			"componentType":5126,
			"count":4459,
			"type":"VEC2"
		},
		{
			"bufferView":26,
			"componentType":5126,
			"count":4459,
			"type":"VEC2"
		},
		{
			"bufferView":27,
			"componentType":5123,
			"count":13788,
			"type":"SCALAR"
		},
		{
			"bufferView":28,
			"componentType":5126,
			"count":1940,
			"max":[
				175.371337890625,
				-4.284132957458496,
				-961.2511596679688
			],
			"min":[
				-180.16171264648438,
				-8.72610092163086,
				-1032.5877685546875
			],
			"type":"VEC3"
		},
		{
			"bufferView":29,
			"componentType":5126,
			"count":1940,
			"type":"VEC3"
		},
		{
			"bufferView":30,
			"componentType":5126,
			"count":1940,
			"type":"VEC2"
		},
		{
			"bufferView":31,
			"componentType":5126,
			"count":1940,
			"type":"VEC2"
		},
		{
			"bufferView":32,
			"componentType":5123,
			"count":10224,
			"type":"SCALAR"
		},
		{
			"bufferView":33,
			"componentType":5126,
			"count":2454,
			"max":[
				74.65055847167969,
				111.92350769042969,
				-1573.6734619140625
			],
			"min":[
				-135.7190704345703,
				-3.052964925765991,
				-1712.7559814453125
			],
			"type":"VEC3"
		},
		{
			"bufferView":34,
			"componentType":5126,
			"count":2454,
			"type":"VEC3"
		},
		{
			"bufferView":35,
			"componentType":5126,
			"count":2454,
			"type":"VEC2"
		},
		{
			"bufferView":36,
			"componentType":5126,
			"count":2454,
			"type":"VEC2"
		},
		{
			"bufferView":37,
			"componentType":5123,
			"count":14268,
			"type":"SCALAR"
		},
		{
			"bufferView":38,
			"componentType":5126,
			"count":2972,
			"max":[
				-98.87915802001953,
				63.43122100830078,
				-1600.3001708984375
			],
			"min":[
				-117.78262329101562,
				15.73801040649414,
				-1694.0177001953125
			],
			"type":"VEC3"
		},
		{
			"bufferView":39,
			"componentType":5126,
			"count":2972,
			"type":"VEC3"
		},
		{
			"bufferView":40,
			"componentType":5126,
			"count":2972,
			"type":"VEC2"
		},
		{
			"bufferView":41,
			"componentType":5126,
			"count":2972,
			"type":"VEC2"
		},
		{
			"bufferView":42,
			"componentType":5123,
			"count":9192,
			"type":"SCALAR"
		}
	],
	"bufferViews":[
		{
			"buffer":0,
			"byteLength":10608,
			"byteOffset":0,
			"target":34962
		},
		{
			"buffer":0,
			"byteLength":10608,
			"byteOffset":10608,
			"target":34962
		},
		{
			"buffer":0,
			"byteLength":7072,
			"byteOffset":21216,
			"target":34962
		},
		{
			"buffer":0,
			"byteLength":10584,
			"byteOffset":28288,
			"target":34963
		},
		{
			"buffer":0,
			"byteLength":6204,
			"byteOffset":38872,
			"target":34962
		},
		{
			"buffer":0,
			"byteLength":6204,
			"byteOffset":45076,
			"target":34962
		},
		{
			"buffer":0,
			"byteLength":4136,
			"byteOffset":51280,
			"target":34962
		},
		{
			"buffer":0,
			"byteLength":6156,
			"byteOffset":55416,
			"target":34963
		},
		{
			"buffer":0,
			"byteLength":3535536,
			"byteOffset":61572,
			"target":34962
		},
		{
			"buffer":0,
			"byteLength":3535536,
			"byteOffset":3597108,
			"target":34962
		},
		{
			"buffer":0,
			"byteLength":2357024,
			"byteOffset":7132644,
			"target":34962
		},
		{
			"buffer":0,
			"byteLength":2357024,
			"byteOffset":9489668,
			"target":34962
		},
		{
			"buffer":0,
			"byteLength":6654888,
			"byteOffset":11846692,
			"target":34963
		},
		{
			"buffer":0,
			"byteLength":1215492,
			"byteOffset":18501580,
			"target":34962
		},
		{
			"buffer":0,
			"byteLength":1215492,
			"byteOffset":19717072,
			"target":34962
		},
		{
			"buffer":0,
			"byteLength":810328,
			"byteOffset":20932564,
			"target":34962
		},
		{
			"buffer":0,
			"byteLength":810328,
			"byteOffset":21742892,
			"target":34962
		},
		{
			"buffer":0,
			"byteLength":2287212,
			"byteOffset":22553220,
			"target":34963
		},
		{
			"buffer":0,
			"byteLength":22300716,
			"byteOffset":24840432,
			"target":34962
		},
		{
			"buffer":0,
			"byteLength":22300716,
			"byteOffset":47141148,
			"target":34962
		},
		{
			"buffer":0,
			"byteLength":14867144,
			"byteOffset":69441864,
			"target":34962
		},
		{
			"buffer":0,
			"byteLength":14867144,
			"byteOffset":84309008,
			"target":34962
		},
		{
			"buffer":0,
			"byteLength":38255040,
			"byteOffset":99176152,
			"target":34963
		},
		{
			"buffer":0,
			"byteLength":53508,
			"byteOffset":137431192,
			"target":34962
		},
		{
			"buffer":0,
			"byteLength":53508,
			"byteOffset":137484700,
			"target":34962
		},
		{
			"buffer":0,
			"byteLength":35672,
			"byteOffset":137538208,
			"target":34962
		},
		{
			"buffer":0,
			"byteLength":35672,
			"byteOffset":137573880,
			"target":34962
		},
		{
			"buffer":0,
			"byteLength":27576,
			"byteOffset":137609552,
			"target":34963
		},
		{
			"buffer":0,
			"byteLength":23280,
			"byteOffset":137637128,
			"target":34962
		},
		{
			"buffer":0,
			"byteLength":23280,
			"byteOffset":137660408,
			"target":34962
		},
		{
			"buffer":0,
			"byteLength":15520,
			"byteOffset":137683688,
			"target":34962
		},
		{
			"buffer":0,
			"byteLength":15520,
			"byteOffset":137699208,
			"target":34962
		},
		{
			"buffer":0,
			"byteLength":20448,
			"byteOffset":137714728,
			"target":34963
		},
		{
			"buffer":0,
			"byteLength":29448,
			"byteOffset":137735176,
			"target":34962
		},
		{
			"buffer":0,
			"byteLength":29448,
			"byteOffset":137764624,
			"target":34962
		},
		{
			"buffer":0,
			"byteLength":19632,
			"byteOffset":137794072,
			"target":34962
		},
		{
			"buffer":0,
			"byteLength":19632,
			"byteOffset":137813704,
			"target":34962
		},
		{
			"buffer":0,
			"byteLength":28536,
			"byteOffset":137833336,
			"target":34963
		},
		{
			"buffer":0,
			"byteLength":35664,
			"byteOffset":137861872,
			"target":34962
		},
		{
			"buffer":0,
			"byteLength":35664,
			"byteOffset":137897536,
			"target":34962
		},
		{
			"buffer":0,
			"byteLength":23776,
			"byteOffset":137933200,
			"target":34962
		},
		{
			"buffer":0,
			"byteLength":23776,
			"byteOffset":137956976,
			"target":34962
		},
		{
			"buffer":0,
			"byteLength":18384,
			"byteOffset":137980752,
			"target":34963
		}
	],
	"samplers":[
		{
			"magFilter":9729,
			"minFilter":9987
		}
	],
	"buffers":[
		{
			"byteLength":137999136,
			"uri":"5345345345.bin"
		}
	]
}
