<svg width="1589" height="1043" viewBox="0 0 1589 1043" fill="none" xmlns="http://www.w3.org/2000/svg">
<path d="M1126.58 652.828L1127.25 653.248C1126.28 669.158 1126.36 687.208 1123.24 702.758L1121.49 703.418L1116.14 700.498C1110.09 690.558 1111.16 677.018 1110.46 665.658C1116.66 661.938 1121.47 657.938 1126.58 652.828Z" fill="white"/>
<path d="M1189.77 242.444L1210.6 243.467C1211.61 253.911 1219.63 261.87 1218.72 272.211L1215.56 273.801C1208.87 275.02 1202.43 274.553 1195.75 273.793C1190.56 270.327 1191.27 263.142 1190.13 257.555C1189.33 253.619 1187.83 249.754 1186.86 245.83L1189.77 242.444Z" fill="white"/>
<path d="M1116.23 463.231C1119.36 462.858 1123.63 462.521 1126.52 463.935C1130.6 465.934 1133.17 469.917 1134.36 474.178C1137.08 483.881 1136.06 496.156 1137.17 506.315C1138.43 517.843 1142.79 528.488 1144.16 539.928C1145.97 555.098 1144.42 570.898 1146.79 585.978C1147.66 591.488 1150.04 597.288 1151.7 602.658C1133.82 592.948 1119.73 588.718 1099.44 592.228C1097.57 583.768 1095.4 575.308 1093.8 566.788C1092.92 562.148 1093.27 551.348 1090.22 548.238C1083.65 550.648 1068.51 572.738 1063.2 579.178C1056.15 587.738 1048.87 595.888 1041.13 603.828L1030.35 599.378C1023.27 601.158 1017.39 603.768 1010.94 607.168L974.227 670.138L1005.37 576.228C1014.2 568.898 1023.51 559.928 1033.27 553.958C1038.47 550.768 1044.77 548.578 1050.4 546.208C1055.77 538.818 1061.21 531.428 1065.91 523.588C1079.22 501.371 1092.09 475.249 1116.23 463.231Z" fill="white"/>
<path d="M1568.93 319.689C1571.89 319.625 1575.18 319.839 1577.94 321.019C1581.56 322.575 1585.72 326.49 1587.14 330.193C1590.74 339.582 1585.33 353.616 1581.79 362.523C1571.68 387.959 1554.11 411.667 1537.56 433.406C1531.19 441.776 1524.9 450.778 1517.55 458.305C1511.04 464.977 1501.99 468.448 1495.96 475.096C1484.68 487.532 1473.92 502.74 1464.36 516.628C1459.35 523.908 1454.8 531.558 1449.21 538.418C1442.56 546.578 1434.43 553.218 1427.31 560.908C1418.58 570.338 1410.71 581.458 1402.42 591.378C1396.04 598.998 1388.62 606.148 1382.53 613.878C1378.01 619.598 1375.46 627.338 1371.85 633.718C1368.11 640.328 1363.78 646.458 1360.54 653.358C1357.03 660.828 1355.05 668.168 1349.81 674.768C1344.77 681.108 1337.99 686.238 1331.79 691.408C1328.06 694.518 1324.19 698.268 1319.61 700.038C1312.4 702.818 1293.64 703.298 1286.77 699.718C1283.29 697.898 1281.39 694.348 1280.62 690.618C1278.09 678.448 1278.32 665.278 1276.89 652.888C1273.37 622.378 1268.67 592.828 1260.22 563.258C1250.06 577.318 1237.73 591.388 1226.16 604.408C1222.29 608.768 1217.46 612.638 1214 617.298C1209.77 623.008 1207.32 630.838 1203.92 637.138C1200.33 643.808 1196.1 650.128 1192.51 656.838C1185.36 642.258 1177.9 630.908 1167.73 618.308L1161.53 611.258C1171.88 598.538 1181.14 585.898 1189.74 571.888C1195.04 563.248 1199.32 553.988 1205.3 545.788C1212.81 535.478 1223.7 528.328 1232.07 518.695C1241.02 508.384 1247.54 496.31 1256.15 485.799C1263.85 476.401 1273.78 463.889 1283.95 457.439C1293.29 451.518 1305.46 449.307 1316.41 448.713C1320.1 448.514 1320.79 449.601 1323.24 451.989C1323.77 459.021 1324.17 466.426 1322.92 473.404C1320.72 485.692 1312.22 499.35 1304.79 509.186C1307.25 519.197 1310.93 528.778 1312.05 539.108C1313.42 551.668 1312.26 564.448 1313.74 577.048C1314.52 583.758 1316.98 589.898 1318.3 596.468C1319.73 603.628 1320.26 611.138 1321.03 618.408C1332.84 603.858 1344.48 589.158 1354.61 573.368C1361.13 563.208 1366.13 552.128 1373.56 542.568C1381.92 531.808 1393.59 523.248 1402.75 512.988C1416.92 497.121 1429.29 479.191 1442.72 462.672C1451.85 451.445 1462.63 441.599 1471.71 430.327C1480.68 419.185 1487.93 406.675 1496.7 395.331C1504.56 385.178 1513.9 376.236 1521.42 365.842C1526.02 359.477 1528.47 351.334 1533.73 345.609C1542.84 335.681 1556.17 324.246 1568.93 319.689Z" fill="white"/>
<path d="M1507.24 563.978C1510.31 563.818 1514.16 563.358 1517.13 564.248C1521.67 565.598 1526.06 570.158 1528 574.378C1531.16 581.248 1529.15 589.928 1527.47 596.968C1518.66 633.998 1496.11 667.088 1474.95 698.178C1469.61 706.038 1464.67 714.418 1458.6 721.728C1451.49 730.308 1440.72 734.598 1434.26 743.008C1422.86 757.858 1411.86 774.558 1401.9 790.428C1395.79 800.168 1390.2 809.998 1383.26 819.208C1377.24 827.198 1369.92 833.898 1363.57 841.558C1353.49 853.718 1344.43 867.438 1334.76 880.028C1328.72 887.898 1321.13 895.568 1315.77 903.798C1311.32 910.628 1308.73 918.708 1305.26 926.068C1302.8 931.268 1299.49 935.968 1296.99 941.138C1293.52 948.308 1291.21 955.808 1288.13 963.118C1283.21 974.778 1272.32 984.958 1263.32 993.688C1259.65 997.238 1255.58 1001.63 1250.71 1003.43L1249.48 1003.84C1247.77 1004.45 1246.13 1004.99 1244.32 1005.22C1236.02 1006.27 1220.56 1007.01 1213.81 1001.02C1210.97 998.498 1209.57 994.238 1209.07 990.578C1207.39 978.378 1207.52 965.618 1206.38 953.318C1204.66 935.008 1201.84 916.788 1199.29 898.588C1196.67 879.858 1191.11 861.688 1188.61 843.058C1187.74 836.608 1187.72 829.868 1187.43 823.358L1163.89 837.648C1161.17 844.648 1157.58 851.768 1152.91 857.688C1147.04 865.118 1140.88 870.738 1136.32 879.208C1131.34 888.448 1127.41 898.448 1123.07 908.018C1115.82 924.028 1108.45 939.958 1100.79 955.778C1097.83 961.898 1095.45 969.818 1090.85 974.808C1086.43 979.588 1081.91 984.508 1077.85 989.588C1072.92 995.738 1069.15 1002.07 1061.41 1005.06C1057.32 1006.64 1052.55 1006.94 1048.21 1006.41C1039.48 1005.36 1030.19 1002 1021.7 999.638C1011.85 996.898 1000.62 994.758 991.487 990.248C986.357 987.718 981.217 984.238 977.097 980.248C967.737 971.208 959.757 959.388 951.597 949.178C948.727 945.588 942.997 939.968 941.857 935.478C940.577 930.438 940.507 924.348 940.087 919.148C938.877 904.248 939.157 890.428 939.397 875.538C939.507 868.028 938.457 860.568 938.157 853.068C937.717 842.308 938.157 831.488 939.477 820.798C942.917 792.908 953.877 767.488 962.797 741.088C971.597 715.018 979.377 688.048 991.527 663.328C999.437 647.228 1010.31 631.798 1019.7 616.478L1029.25 611.968C1036.39 615.068 1043.31 618.048 1047.52 625.008C1054.96 637.278 1046.3 664.018 1042.69 677.088C1039.79 687.438 1036.66 697.418 1032.33 707.268C1027.14 719.078 1020.75 730.598 1017.15 743.008C1007.74 775.518 998.747 808.518 992.707 841.828C990.147 855.968 986.607 871.428 989.127 885.798C991.347 898.388 999.267 910.998 1005.64 921.938C1007.94 925.878 1010.14 927.838 1014.5 929.078C1021.4 928.518 1029.7 921.748 1034.22 916.618C1040.93 908.988 1042.75 898.658 1045.76 889.218C1050.06 875.758 1054 861.208 1060.03 848.428C1065.69 836.458 1074.19 827.218 1081.33 816.298C1089.49 803.808 1096.68 790.538 1104.37 777.728C1109.66 768.928 1115.83 760.468 1120.59 751.378C1132.36 728.898 1135.82 706.328 1137.51 681.398C1138.23 670.718 1141.33 656.858 1139.52 646.418C1139.09 643.938 1138.1 641.758 1135.98 640.298C1133.4 638.518 1128.97 637.808 1125.9 638.368C1122.71 638.948 1120.54 639.878 1118.56 642.548L1116.03 645.838C1111.59 651.168 1102.84 657.338 1095.6 657.498C1091.5 657.588 1087.32 656.188 1084.53 653.148C1078.62 646.708 1079.94 628.448 1080 620.218C1082.31 616.268 1084.93 612.988 1088.67 610.278C1097.38 603.948 1109.72 601.708 1120.26 603.528C1144.01 607.638 1158.04 623.338 1171.02 642.388C1192.65 674.158 1195.36 709.898 1188.72 746.648C1195.03 738.998 1204.93 727.688 1215.43 726.738C1219.42 726.368 1223.15 727.518 1226.03 730.368C1228.21 732.518 1229.99 735.838 1230.72 738.798C1233.96 751.918 1232.69 767.178 1234.32 780.698C1236.04 794.938 1241.11 808.598 1242.4 823.038C1243.72 837.698 1243 852.648 1244.63 867.258C1245.32 873.468 1248.14 879.248 1249.61 885.288C1251.44 892.838 1251.22 901.038 1251.37 908.778C1264.38 892.578 1277.2 874.468 1287.31 856.328C1293.83 844.618 1298.93 831.138 1306.74 820.338C1316.58 806.718 1330.05 795.828 1340.33 782.228C1353.56 764.738 1365.1 745.758 1378.3 728.278C1388.21 715.168 1399.72 703.248 1409.25 689.838C1417.56 678.128 1424.08 665.188 1432.38 653.428C1444.46 636.298 1458.85 621.058 1467.91 601.968C1474.76 587.498 1492.9 571.098 1507.24 563.978Z" fill="white"/>
<path d="M964.037 528.918L972.307 529.398C980.427 530.288 992.637 531.718 997.707 538.948C999.887 542.068 1001.13 546.558 1000.26 550.288C998.967 555.738 996.787 561.098 995.247 566.498C992.217 577.178 989.877 588.178 986.397 598.698C981.607 613.158 975.507 627.188 970.517 641.598C955.407 685.278 940.857 729.298 926.877 773.358C912.287 819.348 899.667 866.058 886.897 912.578C881.597 931.868 877.317 951.908 870.997 970.858C866.687 983.788 850.517 1036.04 840.657 1041.64C838.227 1043.03 833.287 1043.3 830.667 1042.3C827.607 1041.14 825.497 1039.4 824.287 1036.33C821.137 1028.32 824.327 1017.02 825.517 1008.74C827.947 991.768 830.117 974.498 834.127 957.818C843.327 919.598 856.977 882.428 866.067 844.188C879.947 785.768 883.977 726.368 908.547 670.668C893.287 681.378 873.317 687.408 856.127 694.668C829.697 705.818 803.467 717.458 776.734 727.848C764.741 732.518 751.572 735.038 740.445 741.588C757.787 749.958 777.012 761.148 795.687 765.768C803.767 767.778 812.117 768.128 820.297 769.468C830.537 771.128 839.247 777.118 845.007 785.688C850.747 794.228 853.227 808.128 851.337 818.128C847.897 836.448 838.957 853.448 825.657 866.508C809.247 882.608 788.947 889.728 769.831 901.428C764.122 904.928 758.905 909.128 753.135 912.558C744.448 917.728 735.226 921.958 726.597 927.238C716.656 933.308 707.2 940.168 697.083 945.958C664.647 964.508 631.346 981.478 600.393 1002.49C592.13 1008.1 582.188 1011.12 572.155 1008.79C569.161 1008.09 566.648 1006.52 565.245 1003.66C561.702 996.448 567.462 982.238 570.23 975.268C566.575 969.138 560.033 959.138 559.247 952.078C558.284 943.428 562.737 932.898 565.981 924.988C573.528 906.588 583.2 889.138 590.309 870.558C592.755 864.168 596.089 855.528 594.334 848.668C593.732 846.318 592.071 843.818 589.972 842.588L556.683 885.538C550.576 893.618 542.818 901.408 534.075 906.618C527.227 910.698 520.44 913.638 514.341 919.008C507.411 925.128 501.263 932.508 494.837 939.158C484.071 950.288 473.072 961.208 462.216 972.258C456.815 977.758 451.284 984.638 445.088 989.118C438.073 994.188 429.992 997.638 422.408 1001.72C415.928 1005.2 409.921 1009.82 402.378 1010.62C390.292 1011.9 381.756 1003.24 372.878 996.438C371.615 998.038 369.8 1000.8 367.852 1001.54C365.612 1002.38 361.722 1002.14 359.327 1002.24C351.254 1002.57 342.262 1002.94 335.111 998.598C330.075 995.538 326.325 990.648 323.722 985.418C319.908 977.768 318.072 967.878 315.851 959.618C311.754 944.388 307.086 929.078 303.691 913.688C301.745 904.878 300.8 895.848 298.911 887.018C297.751 881.588 295.525 876.798 294.927 871.198C293.766 860.318 292.797 849.338 292.555 838.408C292.273 825.698 292.802 813.048 289.926 800.578L289.527 798.878C281.557 811.238 274.527 825.098 269.541 838.918C263.375 856.018 259.623 873.858 253.467 890.978C251.469 896.528 249.839 902.598 245.906 907.118C241.833 911.788 236.819 915.328 230.456 915.638C219.303 916.158 207.151 910.668 198.949 903.258C182.509 888.408 184.291 862.168 184.398 841.828C184.452 831.618 183.864 821.338 183.441 811.138C175.657 824.418 167.587 838.278 162.456 852.838C158.804 863.198 158.614 873.998 155.712 884.448C153.413 892.728 148.128 899.898 145.658 908.328C143.772 914.758 142.49 921.358 140.574 927.788C138.14 935.938 135.09 943.808 133.033 952.088C129.936 964.568 128.313 979.008 123.545 990.828C121.821 995.108 118.813 1000.17 114.833 1002.72C112.802 1004.02 109.107 1004.08 106.82 1003.48C101.803 1002.14 95.5732 997.488 92.9292 993.028C84.5152 978.828 98.6062 928.508 102.317 911.858C103.949 904.538 104.962 896.978 107.056 889.768C109.341 881.908 113.738 874.918 116.002 867.008C118.98 856.598 120.571 845.498 124.132 835.298C125.601 831.088 128.667 827.498 130.758 823.588C134.094 817.338 136.033 810.248 137.981 803.478C139.791 796.358 141.262 788.178 144.208 781.468C145.749 777.968 148.322 775.028 150.299 771.778C153.515 766.488 155.792 760.268 157.476 754.338C162.284 737.388 166.972 719.708 170.537 702.478C174.383 683.888 177.162 664.518 183.099 646.478C185.174 640.168 188.484 634.458 191.058 628.348L193.773 622.488C196.895 617.438 202.23 614.808 207.85 613.548C212.925 612.408 217.781 611.858 222.267 614.918C224.265 616.278 226.065 618.128 226.69 620.538C227.866 625.058 227.347 631.618 227.567 636.348C228.334 652.888 228.662 669.388 229.007 685.948C229.432 706.328 229.802 726.718 230.174 747.108C230.359 757.288 231.157 767.668 230.757 777.838C230.419 786.438 228.813 795.548 227.993 804.218C227.633 808.028 226.66 812.128 227.486 815.898C231.004 813.048 232.913 809.098 234.991 805.138C241.531 792.698 244.536 778.088 249.822 765.008C254.418 753.628 261.681 743.708 266.304 732.238C274.126 712.828 279.152 692.318 287.047 672.908C290.829 663.608 295.773 655.348 300.548 646.588C302.947 642.188 305.077 637.298 307.872 633.158C311.104 628.378 316.564 625.418 322.26 624.708C328.134 623.958 334.961 624.658 339.504 628.838C343.911 632.888 344.758 646.608 345.149 652.598C345.624 659.868 343.459 666.718 343.789 673.688C344.709 693.138 344.265 712.448 344.332 731.918C344.369 742.708 345.473 754.258 344.539 764.938C343.964 771.518 341.118 778.148 340.023 784.728C337.312 801.038 337.903 817.368 339.298 833.768C345.467 821.538 349.417 808.628 356.285 796.538C367.675 776.488 383.05 760.018 397.208 742.008C407.149 729.368 416.4 715.658 426.956 703.578C443.353 684.818 462.54 667.878 482.108 652.528C485.792 649.638 490.328 645.178 494.532 643.198C496.259 642.378 498.703 642.278 500.587 642.218C505.186 642.068 507.353 643.498 510.5 646.758C515.224 651.658 518.46 657.468 517.971 664.418C517.427 672.168 512.151 680.008 508.234 686.478C498.597 702.388 487.804 717.418 474.994 730.928C466.816 739.548 457.634 747.618 450.144 756.838C436.146 774.068 424.248 794.018 411.971 812.538C401.558 828.238 389.161 844.578 381.061 861.558C377.553 868.908 375.615 876.838 375.427 884.958C375.088 899.568 378.043 923.258 388.918 933.948C393.622 938.568 400.003 941.108 406.603 940.888C415.037 940.608 422.482 936.408 429.714 932.528C438.551 927.788 448.673 922.688 456.115 916.018C463.615 909.288 469.902 899.178 475.832 891.008C487.55 874.868 498.947 858.188 512.429 843.428C525.691 828.908 542.399 817.988 555.236 803.098C561.882 795.388 566.55 786.628 572.333 778.328C578.674 769.218 586.451 760.878 592.061 751.308C599.542 738.538 601.602 723.098 600.391 708.528C600.079 704.778 599.29 701.328 596.063 698.988C583.604 689.948 569.711 704.338 556.559 706.018C552.777 706.498 549.154 705.538 546.292 702.978C538.183 695.728 536.832 681.968 535.987 671.768C539.918 662.888 547.805 654.808 556.903 651.238C566.705 647.398 579.775 646.348 589.515 651.088C615.278 663.618 624.814 689.698 632.272 715.118C637.495 732.918 641.365 750.998 645.977 768.948C649.294 781.858 654.073 794.168 658.616 806.668C656.533 815.628 652.364 823.348 649.784 832.018C648.729 835.568 649.025 839.558 648.674 843.238C648.13 848.948 647.028 854.538 645.697 860.118C642.127 875.088 637.045 889.508 632.93 904.298C630.342 913.608 628.677 923.248 626.839 932.738C653.364 918.498 678.796 902.358 704.766 887.158C714.891 881.228 725.734 876.918 735.799 871.098C743.758 866.488 751.282 860.618 758.97 855.508C774.744 845.038 790.477 834.798 805.377 823.068C795.277 814.278 782.483 808.988 769.891 804.748C751.727 798.628 693.956 788.238 685.03 774.498C680.705 767.838 682.676 760.678 684.47 753.558C686.037 747.348 687.457 739.228 691.023 733.868C693.907 729.538 699.575 725.628 703.622 722.218C714.44 713.098 726.18 704.518 738.643 697.778C760.619 685.878 784.587 678.428 808.037 670.078C825.567 663.828 842.927 657.128 860.637 651.398C874.447 646.938 892.197 644.068 904.447 636.538C909.627 633.358 914.997 634.008 920.877 634.108C928.307 607.818 935.927 581.878 944.267 555.858C946.097 550.148 946.997 542.558 950.127 537.478C953.477 532.048 958.077 530.338 964.037 528.918Z" fill="white"/>
<path fill-rule="evenodd" clip-rule="evenodd" d="M652.993 0L647.206 0.503998C645.819 0.616098 644.36 0.717199 642.849 0.821899C629.911 1.7185 613.177 2.8782 605.29 13.448C602.887 16.6675 603.198 21.3679 603.465 25.4114C603.511 26.1102 603.556 26.7894 603.585 27.438C603.657 29.0372 603.735 30.6374 603.814 32.2383C604.136 38.8307 604.458 45.434 604.373 52.029C604.194 65.905 602.622 79.724 599.537 93.259C597.804 100.861 595.811 108.433 593.818 116.003C592.479 121.089 591.14 126.174 589.881 131.267C589.627 132.295 589.368 133.309 589.111 134.316C587.355 141.204 585.702 147.684 586.381 155.015C587.864 171.035 586.27 187.748 584.706 204.143C584.136 210.13 583.569 216.074 583.157 221.927C563.903 221.271 544.685 220.216 525.471 219.16C490.879 217.26 456.303 215.361 421.568 215.799C419.301 215.827 416.669 215.773 413.823 215.714C401.27 215.455 384.548 215.109 376.556 221.405C375.529 223.796 375.546 224.071 375.999 226.644C379.122 229.444 382.684 230.799 386.782 231.57C398.304 233.737 410.595 234.301 422.697 234.857C428.207 235.11 433.678 235.361 439.019 235.761C455.994 237.032 473 238.095 490.01 239.159C520.394 241.059 550.788 242.96 581.034 246.042C580.398 265.538 579.196 284.889 575.862 304.149C574.381 312.704 572.623 321.119 570.869 329.512C567.77 344.343 564.686 359.106 563.173 374.45C561.648 389.918 561.826 404.851 562.007 420.04C562.072 425.488 562.138 430.968 562.125 436.517C562.082 455.366 560.854 474.259 559.152 493.025L556.753 495.066C554.303 494.14 554.273 494.097 553.173 491.559C549.461 482.995 547.225 472.825 545.172 463.485C544.932 462.396 544.695 461.319 544.459 460.257C541.308 446.097 537.857 432.11 533.834 418.163C528.359 399.179 523.337 383.265 508.677 369.198C504.284 364.983 499.168 360.458 493.581 357.926C483.364 353.296 471.654 351.916 460.554 350.607C459.927 350.533 459.303 350.459 458.68 350.385C451.937 349.584 445.019 349.575 438.176 349.567C436.354 349.565 434.538 349.562 432.731 349.545C431.621 349.534 430.508 349.517 429.393 349.5C421.23 349.372 412.978 349.243 405.134 351.784C396.689 354.52 390.293 359.222 383.492 364.662C375.068 371.401 367.987 378.323 360.445 385.696C359.538 386.583 358.624 387.476 357.7 388.377C355.984 390.049 354.247 391.699 352.51 393.348C347.396 398.205 342.284 403.06 337.733 408.472C331.251 416.18 325.193 424.283 319.137 432.382C314.78 438.21 310.423 444.037 305.91 449.715C303.434 452.831 300.952 455.897 298.486 458.944C286.425 473.845 274.736 488.287 265.844 505.876C260.591 516.265 256.935 527.168 253.284 538.053C249.755 548.575 246.232 559.08 241.278 569.088C241.106 564.698 241.02 560.288 240.933 555.874C240.798 548.977 240.663 542.074 240.202 535.238C239.97 531.795 239.717 528.412 239.468 525.074C237.737 501.887 236.17 480.896 242.754 457.292C244.52 450.963 244.218 443.064 243.937 435.743C243.834 433.056 243.735 430.447 243.741 428.021C243.767 418.31 243.722 408.592 243.677 398.874C243.618 386.196 243.559 373.518 243.659 360.857C243.68 358.165 243.935 355.542 244.191 352.916C244.52 349.526 244.85 346.13 244.68 342.569C244.414 336.982 243.711 326.865 241.195 321.926C239.618 318.83 235.033 316.704 231.792 316.052C225.773 314.841 218.57 315.828 213.478 319.403C209.377 322.281 206.704 327.717 204.339 332.528C203.756 333.713 203.192 334.86 202.63 335.922C201.36 338.321 200.069 340.665 198.786 342.995C195.347 349.241 191.968 355.38 189.2 362.17C185.266 371.821 182.048 381.749 178.83 391.676C175.683 401.386 172.536 411.094 168.721 420.54C166.526 425.974 163.722 431.018 160.922 436.052C158.349 440.68 155.78 445.299 153.695 450.205C151.066 456.392 148.976 462.762 146.886 469.131C145.237 474.158 143.588 479.183 141.675 484.116C138.493 492.321 133.733 501.069 129.443 508.954C129.169 509.456 128.898 509.955 128.629 510.45C129.27 505.981 130.014 501.429 130.764 496.843C132.532 486.031 134.332 475.026 134.88 464.448C135.273 456.862 134.985 449.112 134.697 441.407C134.558 437.678 134.42 433.96 134.359 430.276C134.292 426.226 134.231 422.178 134.169 418.13C133.922 401.861 133.675 385.606 133.089 369.332C133.038 367.916 133.067 366.008 133.099 363.87C133.199 357.244 133.333 348.396 131.224 345.022C129.646 342.498 126.05 340.134 123.138 339.627C117.432 338.634 108.884 341.046 104.342 344.706C101.11 347.31 99.8272 350.425 98.4482 353.774C97.9152 355.068 97.3682 356.396 96.6892 357.744C95.6752 359.755 94.6392 361.745 93.6052 363.731C90.5932 369.516 87.5992 375.266 85.2352 381.415C81.3122 391.618 78.2012 402.113 75.0932 412.597C72.0872 422.736 69.0842 432.864 65.3542 442.706C63.5962 447.344 61.5442 452.089 58.9562 456.327C58.1842 457.59 57.2922 458.837 56.3932 460.093C54.7692 462.363 53.1252 464.662 52.1372 467.133C49.8512 472.852 48.3372 478.879 46.8222 484.911C45.5252 490.075 44.2272 495.242 42.4432 500.223C41.1332 503.879 39.2612 507.067 37.3932 510.249C35.9302 512.743 34.4682 515.232 33.2812 517.94C30.6872 523.854 29.2812 530.598 27.8842 537.299C26.9052 541.994 25.9302 546.667 24.5552 551.018C23.5362 554.243 22.1432 557.337 20.7512 560.429C19.2162 563.837 17.6822 567.242 16.6532 570.818C15.0602 576.352 13.9212 582.004 12.7812 587.653C12.1132 590.968 11.4452 594.281 10.6862 597.568C10.4332 598.663 10.1792 599.758 9.9262 600.852C5.6482 619.311 1.39819 637.655 0.160193 656.668C-0.292807 663.618 -0.0948048 670.008 4.9752 675.368C7.7022 678.248 13.7532 682.398 17.8912 682.508C20.2422 682.558 23.3622 681.858 25.0692 680.158C27.7672 677.488 30.4292 673.458 31.7272 669.898C34.4972 662.301 36.2022 654.076 37.8902 645.935C38.7412 641.827 39.5882 637.742 40.5652 633.768C41.8472 628.558 43.4942 623.535 45.1472 618.494C46.0292 615.804 46.9132 613.109 47.7442 610.378C48.8092 606.879 49.6722 603.319 50.5352 599.76C51.3142 596.544 52.0942 593.329 53.0222 590.158C54.1962 586.141 56.0282 582.414 57.8522 578.702C59.7882 574.763 61.7152 570.84 62.8392 566.608C64.0072 562.214 64.7642 557.816 65.5202 553.427C66.5882 547.229 67.6532 541.048 69.8662 534.918C74.7142 521.488 82.1922 508.188 89.5682 495.969C89.8972 503.408 89.8692 510.926 89.8412 518.447C89.8032 528.703 89.7642 538.964 90.6322 549.038C91.3932 557.876 93.0882 566.303 94.7562 574.596C98.2492 591.958 101.623 608.733 96.0602 627.458C95.4212 629.608 94.5712 632.006 93.6662 634.56C89.3462 646.748 83.7652 662.496 93.8282 671.838C99.6212 677.218 107.979 677.893 115.919 678.534C118.856 678.771 121.736 679.004 124.408 679.468C126.328 679.802 128.092 680.284 129.817 680.755C133.155 681.666 136.35 682.538 140.256 682.228C144.563 681.878 149.032 680.118 151.784 676.658C153.684 674.278 154.062 671.358 153.671 668.408C152.549 659.917 149.98 650.824 147.531 642.156C146.776 639.483 146.032 636.85 145.346 634.288C144.952 632.815 144.523 631.394 144.103 630.002C142.312 624.07 140.687 618.684 142.655 612.228C145.359 603.356 148.574 594.721 151.79 586.084C154.164 579.709 156.538 573.333 158.708 566.858C161.015 559.975 162.988 553.021 164.959 546.071C167.977 535.43 170.992 524.798 175.203 514.448C178.698 505.856 183.434 497.615 188.093 489.509C189.053 487.838 190.01 486.173 190.952 484.512C193.345 495.009 193.466 504.994 193.591 515.191C193.653 520.3 193.715 525.462 194.065 530.768C194.201 532.83 194.31 534.948 194.421 537.093C194.756 543.581 195.103 550.305 196.233 556.408C196.721 559.042 197.47 561.62 198.221 564.201C198.967 566.765 199.713 569.332 200.204 571.958C200.89 575.636 201.481 579.332 202.072 583.028C203.045 589.111 204.018 595.195 205.416 601.198C205.775 601.163 206.132 601.127 206.487 601.091C215.148 600.225 222.666 599.473 230.028 605.448C235.49 609.878 238.855 615.298 239.453 622.358L241.526 680.128C246.013 683.232 256.739 682.249 264.75 681.514C267.139 681.295 269.287 681.098 270.956 681.038C276.236 666.302 283.154 653.38 290.283 640.061C292.592 635.747 294.924 631.391 297.23 626.918C288.521 610.798 285.296 587.238 290.453 569.588C292.83 561.452 297.112 554.554 301.525 547.446C301.82 546.971 302.116 546.495 302.411 546.018C308.021 536.954 313.854 528.081 319.702 519.187C320.267 518.327 320.833 517.467 321.398 516.607C323.887 512.817 326.364 509.006 328.844 505.19C338.65 490.1 348.508 474.929 359.413 460.685C364.64 453.858 370.918 447.637 377.157 441.456C380.566 438.077 383.963 434.711 387.17 431.265C389.287 428.989 391.282 426.552 393.278 424.113C396.04 420.738 398.805 417.359 401.905 414.397C404.126 412.275 406.996 410.483 409.721 409.075C420.661 403.424 430.925 405.776 441.374 408.169C448.177 409.728 455.059 411.304 462.257 410.701C468.23 410.2 473.98 407.5 479.666 404.83C483.414 403.07 487.135 401.323 490.873 400.228C491.251 400.366 491.631 400.502 492.011 400.637C496.038 402.078 500.053 403.515 502.512 407.276C503.788 409.228 503.982 412.915 504.114 415.433C504.123 415.616 504.133 415.793 504.142 415.963C504.696 426.053 503.543 436.471 500.003 445.96C496.552 455.209 490.54 462.995 484.552 470.751C483.221 472.476 481.89 474.199 480.589 475.937C477.434 480.151 474.575 484.477 471.728 488.784C466.649 496.469 461.61 504.093 455.002 510.914C449.703 516.383 443.96 521.345 438.215 526.309C430.5 532.975 422.782 539.644 416.131 547.548C407.481 557.822 399.675 568.73 391.877 579.63C384.197 590.363 376.524 601.087 368.056 611.188C365.041 614.785 361.147 617.274 357.237 619.773C356.995 619.928 356.752 620.083 356.51 620.238C356.303 620.372 355.994 620.557 355.634 620.773C354.299 621.574 352.247 622.804 351.962 623.458C351.752 623.948 353.119 627.278 353.276 627.678C356.488 636.008 358.191 650.448 357.707 659.468C357.585 661.742 357.392 663.922 357.203 666.063C356.722 671.514 356.263 676.711 357.044 682.548C361.192 678.336 365.349 674.131 369.506 669.926C379.423 659.894 389.342 649.861 399.151 639.728C401.59 637.208 403.975 634.624 406.362 632.037C411.345 626.637 416.336 621.229 421.839 616.388C425.429 613.227 429.279 611.125 433.253 608.955C434.848 608.085 436.462 607.203 438.088 606.238C443.99 602.738 449.154 598.538 453.955 593.638C458.997 588.5 463.16 582.726 467.339 576.928C468.756 574.963 470.175 572.995 471.631 571.048C478.864 561.368 486.536 551.978 494.194 542.628C500.111 553.097 504.761 564.261 509.417 575.44C513.989 586.419 518.568 597.413 524.36 607.778C526.562 611.718 529.387 615.608 532.571 618.818C533.309 619.562 534.221 620.35 535.178 621.178C537.653 623.319 540.435 625.724 541.329 628.328C542.594 631.999 542.176 637.338 541.818 641.909C541.714 643.241 541.615 644.507 541.564 645.648C554.994 637.438 566.508 634.868 582.15 636.148L615.744 453.256L647.127 251.446L674.488 253.339C671.903 261.303 672.173 270.358 672.438 279.225C672.571 283.669 672.702 288.066 672.472 292.253C672.074 299.496 671.35 306.719 670.626 313.942C670.055 319.632 669.485 325.321 669.074 331.02C668.751 335.496 668.556 339.974 668.362 344.452C668.128 349.82 667.895 355.189 667.44 360.556C666.395 372.868 664.664 385.179 662.154 397.275C661.425 400.787 660.634 404.254 659.846 407.709C657.972 415.924 656.114 424.07 655.143 432.585C653.033 451.076 652.813 469.605 652.594 488.156C652.407 503.876 652.221 519.613 650.884 535.358C649.394 552.903 646.823 570.363 644.252 587.823C641.15 608.887 638.049 629.949 636.846 651.158C636.357 659.785 636.648 668.516 636.936 677.185C636.982 678.564 637.028 679.942 637.071 681.318C637.09 681.938 637.1 682.573 637.11 683.219C637.168 686.899 637.231 690.899 639.014 694.038C640.82 697.218 643.331 699.598 646.984 700.378C649.792 700.978 653.493 700.208 655.765 698.458C657.933 696.788 659.797 694.518 660.806 691.958C663.102 686.154 664.123 679.262 665.098 672.687C665.438 670.392 665.772 668.136 666.153 665.978C667.161 660.268 668.195 654.563 669.229 648.857C670.947 639.384 672.664 629.911 674.26 620.418C676.285 618.309 678.309 616.198 680.333 614.086C685.592 608.599 690.852 603.11 696.149 597.658C697.34 596.431 698.56 595.212 699.785 593.987C703.733 590.041 707.733 586.042 710.969 581.578C710.502 590.295 709.234 598.895 707.964 607.508C707.459 610.93 706.954 614.353 706.499 617.788C704.175 635.318 702.477 652.458 702.129 670.148C702.112 671.034 702.049 672.072 701.981 673.199C701.689 678.039 701.298 684.505 703.981 687.458C705.032 688.618 707.279 690.538 708.896 690.418C714.421 689.998 718.02 686.808 721.194 682.618C725.158 677.398 728.475 671.388 730.358 665.078C733.601 654.215 734.925 641.959 736.197 630.174C736.612 626.327 737.022 622.53 737.492 618.848C738.263 612.801 739.06 606.762 739.856 600.724C742.139 583.408 744.42 566.108 746.105 548.698C754.767 538.458 763.08 527.868 770.888 516.968C773.161 513.795 775.198 510.459 777.233 507.126C779.486 503.436 781.738 499.749 784.308 496.292C793.638 483.717 812.928 464.635 828.378 460.01C828.698 460.11 828.988 460.195 829.258 460.275C831.008 460.79 831.848 461.037 832.728 463.225C834.018 466.437 833.988 474.031 833.508 477.446C831.878 489.132 829.278 500.778 826.688 512.405C825.008 519.922 823.338 527.432 821.928 534.938C820.068 544.827 818.598 554.805 817.138 564.772C815.688 574.56 814.248 584.337 812.448 594.008C811.598 598.617 810.508 603.195 809.418 607.773C807.978 613.854 806.528 619.937 805.628 626.098C804.768 632.015 804.628 637.979 804.488 643.938C804.378 648.855 804.258 653.769 803.738 658.648L832.168 648.238L840.178 621.098L842.048 620.428C845.268 622.971 847.398 631.146 848.978 637.258C849.448 639.055 849.868 640.673 850.258 641.918C855.058 640.357 860.088 638.95 865.168 637.526C878.998 633.65 893.278 629.65 904.788 622.088C896.478 607.368 891.768 584.118 896.088 567.428C899.008 556.161 906.068 545.234 912.648 535.037C914.278 532.5 915.888 530.009 917.398 527.568L918.818 527.258C923.268 526.278 927.388 524.998 931.448 522.878C941.778 517.473 951.898 511.079 961.988 504.703C968.668 500.479 975.338 496.263 982.048 492.349C985.498 490.335 988.958 488.322 992.408 486.31C1006.42 478.153 1020.42 469.994 1034.34 461.681C1036.15 460.596 1037.98 459.516 1039.81 458.434C1049.07 452.951 1058.43 447.415 1066.99 440.967C1075.9 434.256 1084.21 426.328 1090.17 416.82C1096.27 407.08 1102.95 391.672 1099.96 380.02C1096.41 366.198 1078.26 346.796 1065.8 340.148C1060.98 337.58 1056.15 335.824 1050.65 335.882C1048.67 335.903 1046.61 335.858 1044.53 335.813C1039.7 335.708 1034.73 335.601 1030.2 336.298C1027.78 336.67 1025.24 337.723 1022.83 338.722C1021.99 339.07 1021.17 339.411 1020.37 339.715C1019.55 340.026 1018.73 340.333 1017.91 340.64C1010.03 343.591 1002.15 346.543 995.988 352.536C993.838 354.629 991.838 356.863 989.838 359.099C987.438 361.775 985.038 364.453 982.388 366.891C979.368 369.665 976.238 372.274 973.108 374.879C968.188 378.983 963.268 383.078 958.828 387.793C949.028 398.187 940.358 409.655 931.718 421.086C928.428 425.435 925.148 429.779 921.808 434.056C917.708 439.299 913.558 444.416 909.418 449.505C895.378 466.785 881.608 483.734 871.388 504.166C866.028 514.891 862.328 525.912 858.618 536.988C856.468 543.422 854.308 549.875 851.808 556.298L851.858 554.908C852.248 547.833 854.178 540.265 856.038 533.004C856.718 530.341 857.388 527.719 857.968 525.178C859.098 520.23 860.198 515.273 861.298 510.316C863.728 499.409 866.148 488.499 868.858 477.667C869.348 475.7 869.868 473.704 870.398 471.686C873.058 461.556 875.858 450.876 875.548 440.61C875.308 432.627 872.708 425.012 867.368 419.003C862.328 413.328 855.198 408.601 847.428 408.226C833.738 407.566 817.448 417.714 807.958 426.944L756.77 483.501C757.29 480.807 757.818 478.107 758.347 475.404C761.721 458.154 765.13 440.724 766.738 423.284C767.417 415.913 767.749 408.526 768.081 401.138C768.528 391.161 768.976 381.182 770.281 371.241C771.049 365.393 771.767 359.525 772.485 353.654C773.776 343.1 775.069 332.536 776.654 322.06C777.284 317.898 778.239 313.516 779.212 309.05C781.362 299.185 783.602 288.911 782.618 279.709C782.391 279.422 782.192 279.162 782.012 278.928C780.733 277.261 780.406 276.834 777.721 276.54C770.995 275.806 754.27 274.91 749.196 279.41C747.34 281.057 745.84 283.351 745.291 285.786C744.763 288.123 744.707 290.678 744.651 293.209C744.615 294.817 744.58 296.415 744.424 297.941C743.903 303.046 742.989 308.174 742.082 313.265C741.777 314.972 741.474 316.675 741.186 318.371C740.98 319.583 740.777 320.798 740.574 322.013C739.51 328.376 738.441 334.768 736.998 341.04C736.557 342.959 736.076 344.84 735.597 346.71C734.427 351.29 733.273 355.804 732.758 360.643C732.176 366.115 732.131 371.668 732.085 377.215C732.055 380.821 732.026 384.424 731.849 388C731.006 405.058 729.062 423.51 726.76 440.419C725.83 447.253 724.078 453.995 722.33 460.72C720.353 468.328 718.382 475.914 717.613 483.584C716.744 492.254 716.583 501.026 716.423 509.765C716.373 512.454 716.324 515.14 716.254 517.819C716.221 519.063 716.221 520.36 716.22 521.681C716.218 525.88 716.215 530.329 715.19 534.148C714.241 537.688 711.089 542.041 708.412 545.738C707.512 546.981 706.666 548.149 705.975 549.188C704.295 551.715 702.649 554.249 701.007 556.777C694.497 566.801 688.058 576.715 679.858 585.628C680.456 582.83 681.055 580.032 681.654 577.233C686.47 554.748 691.29 532.243 695.417 509.627C697.179 499.967 698.712 490.269 700.245 480.572C701.695 471.399 703.144 462.228 704.788 453.09C706.125 445.657 707.513 438.23 708.9 430.802C713.352 406.976 717.805 383.14 720.598 359.054C721.867 348.104 722.084 336.977 722.301 325.872C722.43 319.228 722.559 312.591 722.914 306.004C723.429 296.432 724.526 286.891 725.624 277.35C726.41 270.514 727.197 263.677 727.769 256.827C743.767 257.881 759.758 259.054 775.748 260.226C809.968 262.735 844.188 265.244 878.488 266.596C893.708 267.196 909.008 267.113 924.298 267.03C934.258 266.976 944.218 266.922 954.148 267.057C972.498 267.306 990.988 268.163 1009.42 269.018C1017.97 269.414 1026.51 269.81 1035.02 270.145C1051.72 270.801 1068.56 271.71 1085.21 273.185C1089.14 273.533 1093.07 273.926 1097.01 274.319C1108.65 275.482 1120.34 276.65 1132 276.676C1143.43 276.702 1154.25 275.438 1165.58 274.066C1166.81 273.917 1167.96 273.848 1169.07 273.781C1172.31 273.587 1175.14 273.417 1178.26 271.336C1178.97 267.178 1178.5 262.893 1178.03 258.675C1177.91 257.636 1177.8 256.602 1177.7 255.574C1177.31 251.428 1175.63 248.666 1172.4 246.094C1169.14 243.495 1165.44 241.897 1161.25 241.635C1155.65 241.284 1149.83 241.582 1144.09 241.877C1141.54 242.007 1139.01 242.137 1136.52 242.209C1123.95 242.573 1111.47 242.577 1098.9 242.022C1084.77 241.398 1070.68 239.677 1056.6 237.957C1041.9 236.162 1027.22 234.368 1012.53 233.829C1006.61 233.612 1000.66 233.841 994.708 234.071C989.628 234.267 984.548 234.463 979.478 234.382C938.438 233.723 897.268 232.727 856.248 231.421C840.348 230.915 824.598 229.462 808.818 228.006C801.648 227.345 794.478 226.683 787.278 226.109C768.805 224.635 750.339 224.062 731.819 223.647C732.61 219.42 733.495 215.287 734.367 211.206C737.948 194.465 741.34 178.606 737.381 160.805C737.312 160.494 737.242 160.172 737.17 159.842C736.406 156.339 735.442 151.917 733.278 149.261C731.219 146.733 728.668 144.924 725.294 144.867C714.619 144.687 696.401 146.842 688.911 154.969C687.6 156.391 686.843 157.657 686.701 159.584C686.333 164.575 686.648 169.655 686.963 174.721C687.171 178.085 687.38 181.442 687.388 184.765C687.419 197.982 685.282 211.163 682.26 223.996L647.78 223.864C648.369 205.443 650.17 187.64 652.002 169.538C652.408 165.523 652.816 161.493 653.212 157.439C653.633 153.126 654.034 148.81 654.434 144.494C655.774 130.043 657.115 115.591 659.254 101.228C660.248 94.557 661.837 87.792 663.431 81.007C665.805 70.897 668.191 60.743 668.632 50.79C669.163 38.811 668.463 27.383 665.377 15.763C665.313 15.523 665.25 15.2814 665.186 15.0386C664.196 11.2791 663.131 7.2348 660.504 4.305C658.671 2.26 655.856 0.126 652.993 0ZM1048.36 383.041C1044.36 382.939 1040.3 382.835 1036.38 383.286C1026.06 385.356 1017.19 388.735 1008.5 394.718C993.798 404.831 981.268 419.682 969.298 433.877C965.818 437.993 962.398 442.053 958.978 445.927C956.968 448.205 954.838 450.501 952.688 452.821C947.668 458.244 942.528 463.799 938.448 469.576C937.408 471.049 936.828 472.491 936.198 474.089C936.118 474.285 936.038 474.483 935.958 474.684L934.488 478.066L957.588 468.454C961.398 466.858 965.288 465.305 969.208 463.742C979.958 459.451 990.888 455.09 1000.8 449.599C1008.46 445.356 1014.71 440.049 1021.22 434.52C1022.26 433.637 1023.31 432.749 1024.37 431.858C1025.76 430.688 1027.26 429.653 1028.76 428.616C1030.21 427.612 1031.67 426.607 1033.03 425.477C1037.38 421.869 1041.38 417.649 1045.32 413.499C1046.37 412.387 1047.42 411.28 1048.47 410.192C1049.66 408.963 1050.97 407.706 1052.32 406.417C1056.31 402.603 1060.6 398.503 1062.77 393.997C1062.4 390.452 1061.79 389.607 1058.96 387.317L1052.2 383.12C1050.93 383.106 1049.65 383.073 1048.36 383.041Z" fill="white"/>
</svg>
