<svg width="313" height="30" viewBox="0 0 313 30" fill="none" xmlns="http://www.w3.org/2000/svg">
<path d="M13.28 28.8428H7.8L0.6 0.642772H4.12L10.4 25.5228H10.92L17.28 0.642772H21.64L27.68 25.5228H28.2L35 0.642772H38.44L30.64 28.8428H25.2L19.64 5.84277H19.12L13.28 28.8428ZM61.7419 28.8428H58.1019L55.6219 22.0828H41.3819L38.7819 28.8428H35.2219L46.1419 0.642772H51.2219L61.7419 28.8428ZM48.3419 3.96277L42.5819 18.9628H54.4619L48.9419 3.96277H48.3419ZM82.7963 28.8428H78.7963L70.8763 17.7628H66.1563V28.8428H62.7563V0.642772H72.1563C74.0763 0.642772 75.7829 1.00277 77.2763 1.72277C78.7696 2.44277 79.9296 3.45611 80.7563 4.76277C81.6096 6.06944 82.0363 7.56277 82.0363 9.24277C82.0363 11.3494 81.3563 13.1494 79.9963 14.6428C78.6629 16.1361 76.8763 17.0961 74.6363 17.5228L82.7963 28.8428ZM66.1563 3.76277V14.6428H72.1563C74.0496 14.6428 75.5829 14.1494 76.7563 13.1628C77.9296 12.1761 78.5163 10.8694 78.5163 9.24277C78.5163 7.61611 77.9296 6.29611 76.7563 5.28277C75.5829 4.26944 74.0496 3.76277 72.1563 3.76277H66.1563ZM88.16 28.8428H84.8V0.642772H90.6L99.48 23.9628H100L108.92 0.642772H114.6V28.8428H111.24V4.52277H110.72L101.4 28.8428H97.96L88.68 4.52277H88.16V28.8428ZM147.729 28.8428H144.089L141.609 22.0828H127.369L124.769 28.8428H121.209L132.129 0.642772H137.209L147.729 28.8428ZM134.329 3.96277L128.569 18.9628H140.449L134.929 3.96277H134.329ZM156.482 29.2428C153.949 29.2428 151.776 28.6028 149.962 27.3228C148.149 26.0161 146.882 24.2428 146.162 22.0028L149.402 21.4828C150.149 23.0561 151.096 24.2161 152.242 24.9628C153.416 25.7094 154.829 26.0828 156.482 26.0828C158.269 26.0828 159.696 25.6828 160.762 24.8828C161.856 24.0828 162.402 23.0028 162.402 21.6428C162.402 20.2028 161.842 19.0961 160.722 18.3228C159.602 17.5494 158.002 16.8294 155.922 16.1628C154.162 15.5761 152.709 14.9894 151.562 14.4028C150.416 13.7894 149.456 12.9628 148.682 11.9228C147.909 10.8561 147.522 9.52277 147.522 7.92277C147.522 6.40277 147.909 5.06944 148.682 3.92277C149.456 2.74944 150.522 1.84277 151.882 1.20277C153.242 0.562772 154.776 0.242772 156.482 0.242772C158.749 0.242772 160.709 0.842772 162.362 2.04277C164.042 3.21611 165.229 4.84277 165.922 6.92277L162.722 7.44277C162.162 6.13611 161.336 5.13611 160.242 4.44277C159.176 3.72277 157.922 3.36277 156.482 3.36277C154.882 3.36277 153.576 3.76277 152.562 4.56277C151.549 5.36277 151.042 6.40277 151.042 7.68277C151.042 8.66944 151.336 9.50944 151.922 10.2028C152.536 10.8694 153.282 11.4161 154.162 11.8428C155.042 12.2694 156.162 12.7094 157.522 13.1628C159.229 13.7494 160.669 14.3494 161.842 14.9628C163.016 15.5761 163.989 16.4161 164.762 17.4828C165.536 18.5228 165.922 19.8294 165.922 21.4028C165.922 22.9494 165.509 24.3228 164.682 25.5228C163.882 26.6961 162.762 27.6161 161.322 28.2828C159.909 28.9228 158.296 29.2428 156.482 29.2428ZM190.296 14.4428C191.843 14.8961 193.056 15.7228 193.936 16.9228C194.843 18.1228 195.296 19.5361 195.296 21.1628C195.296 22.6294 194.909 23.9494 194.136 25.1228C193.363 26.2961 192.283 27.2161 190.896 27.8828C189.536 28.5228 187.976 28.8428 186.216 28.8428H175.136V0.642772H185.536C187.296 0.642772 188.856 0.962772 190.216 1.60277C191.603 2.24277 192.669 3.14944 193.416 4.32277C194.189 5.46944 194.576 6.78944 194.576 8.28277C194.576 9.74944 194.189 11.0294 193.416 12.1228C192.643 13.2161 191.603 13.9894 190.296 14.4428ZM178.536 3.72277V13.1628H185.536C187.163 13.1628 188.483 12.7361 189.496 11.8828C190.536 11.0028 191.056 9.85611 191.056 8.44277C191.056 7.02944 190.536 5.89611 189.496 5.04277C188.483 4.16277 187.163 3.72277 185.536 3.72277H178.536ZM186.216 25.7628C187.869 25.7628 189.203 25.3228 190.216 24.4428C191.256 23.5361 191.776 22.3761 191.776 20.9628C191.776 19.5494 191.256 18.4028 190.216 17.5228C189.203 16.6161 187.869 16.1628 186.216 16.1628H178.536V25.7628H186.216ZM208.208 29.2428C206.101 29.2428 204.221 28.7628 202.568 27.8028C200.914 26.8428 199.621 25.5094 198.688 23.8028C197.754 22.0961 197.288 20.1628 197.288 18.0028V0.642772H200.688V18.0028C200.688 19.5761 201.008 20.9761 201.648 22.2028C202.288 23.4294 203.168 24.3894 204.288 25.0828C205.434 25.7494 206.741 26.0828 208.208 26.0828C209.701 26.0828 211.021 25.7494 212.168 25.0828C213.341 24.3894 214.248 23.4294 214.888 22.2028C215.528 20.9761 215.848 19.5761 215.848 18.0028V0.642772H219.248V18.0028C219.248 20.1894 218.781 22.1361 217.848 23.8428C216.914 25.5228 215.608 26.8428 213.928 27.8028C212.248 28.7628 210.341 29.2428 208.208 29.2428ZM234.466 28.8428H231.066V3.76277H221.066V0.642772H244.506V3.76277H234.466V28.8428ZM259.916 28.8428H256.516V3.76277H246.516V0.642772H269.956V3.76277H259.916V28.8428ZM289.884 28.8428H272.164V0.642772H289.484V3.76277H275.564V13.0828H288.204V16.1628H275.564V25.6828H289.884V28.8428ZM312.724 28.8428H308.724L300.804 17.7628H296.084V28.8428H292.684V0.642772H302.084C304.004 0.642772 305.711 1.00277 307.204 1.72277C308.698 2.44277 309.858 3.45611 310.684 4.76277C311.538 6.06944 311.964 7.56277 311.964 9.24277C311.964 11.3494 311.284 13.1494 309.924 14.6428C308.591 16.1361 306.804 17.0961 304.564 17.5228L312.724 28.8428ZM296.084 3.76277V14.6428H302.084C303.978 14.6428 305.511 14.1494 306.684 13.1628C307.858 12.1761 308.444 10.8694 308.444 9.24277C308.444 7.61611 307.858 6.29611 306.684 5.28277C305.511 4.26944 303.978 3.76277 302.084 3.76277H296.084Z" fill="white"/>
</svg>
